<svg xmlns="http://www.w3.org/2000/svg" width="1200" height="630" viewBox="0 0 1200 630">
  <rect width="1200" height="630" fill="#18181b"/>
  <g stroke="#ffffff" stroke-opacity="0.06" stroke-width="1">
    <g>
      <line x1="0" y1="42" x2="1200" y2="42"/><line x1="0" y1="84" x2="1200" y2="84"/><line x1="0" y1="126" x2="1200" y2="126"/><line x1="0" y1="168" x2="1200" y2="168"/><line x1="0" y1="210" x2="1200" y2="210"/><line x1="0" y1="252" x2="1200" y2="252"/><line x1="0" y1="294" x2="1200" y2="294"/><line x1="0" y1="336" x2="1200" y2="336"/><line x1="0" y1="378" x2="1200" y2="378"/><line x1="0" y1="420" x2="1200" y2="420"/><line x1="0" y1="462" x2="1200" y2="462"/><line x1="0" y1="504" x2="1200" y2="504"/><line x1="0" y1="546" x2="1200" y2="546"/><line x1="0" y1="588" x2="1200" y2="588"/>
    </g>
  </g>
  <g transform="translate(96,210)">
    <rect width="84" height="84" rx="18" fill="#ea580c"/>
    <path d="M18 56h48M24 56V35m36 21V35M24 35l8-8h20l8 8M24 35h36" fill="none" stroke="#fff" stroke-width="5" stroke-linecap="round" stroke-linejoin="round"/>
    <circle cx="42" cy="24" r="4" fill="#fff"/>
  </g>
  <text x="200" y="252" font-family="Inter, Arial, sans-serif" font-size="64" font-weight="800" fill="#ffffff">Werkbank</text>
  <text x="96" y="372" font-family="Inter, Arial, sans-serif" font-size="40" font-weight="700" fill="#ffffff">Rechner &amp; Generatoren für Maker</text>
  <text x="96" y="430" font-family="Inter, Arial, sans-serif" font-size="30" fill="#a1a1aa">3D-Druck · CNC · Laser · Holz · Metall · Schrauben</text>
  <rect x="96" y="470" width="220" height="6" rx="3" fill="#ea580c"/>
</svg>
